<?xml version="1.0" standalone="no"?><!DOCTYPE svg PUBLIC "-//W3C//DTD SVG 1.1//EN" "http://www.w3.org/Graphics/SVG/1.1/DTD/svg11.dtd"><svg t="1609657948512" class="icon" viewBox="0 0 1024 1024" version="1.1" xmlns="http://www.w3.org/2000/svg" p-id="4847" xmlns:xlink="http://www.w3.org/1999/xlink" width="64" height="64"><defs><style type="text/css"></style></defs><path d="M537.576602 0c345.434577 0 362.285044 329.787714 362.285044 329.787714 52.356809 69.207276 24.072096 131.794725 24.072096 131.794725 168.504671 264.793055 59.578437 341.22196 29.488318 346.638181-29.488318 5.416222-58.374833-32.49733-58.374833-32.49733s-9.628838 37.913551-33.700934 58.374833c87.86315 40.922563 72.216288 92.075767 72.216288 92.075767s-18.655874 154.061414-383.94993 56.569425l-31.293725-5.416222c-350.248996 126.378504-393.578768-43.931575-393.578768-43.931575s-14.443258-71.012683 53.560413-97.491989c-39.718958-24.072096-53.560413-75.2253-53.560413-75.2253s-35.506341 57.77303-81.845126 36.709946C-3.443754 775.723291-31.728467 587.359141 143.997834 451.351799c0 0-25.275701-80.641521 32.49733-128.785713C176.495163 322.566085 192.142025 0 537.576602 0L537.576602 0 537.576602 0zM230.055576 341.22196C153.626672 406.216619 204.779876 471.211278 204.779876 471.211278 36.275204 574.72129 66.365324 742.022357 66.365324 742.022357s27.081108-13.239653 45.736982-52.356809c19.257677-39.117156 48.745994 6.619826 48.745994 6.619826s18.655874 89.066755 74.623497 123.971294c56.569425 34.904539-2.40721 57.171228-2.40721 57.171228s-61.985647 0.601802-56.569425 43.329773c5.416222 42.126168 205.81642 95.084779 325.575097 1.203605l63.791054 8.425234c209.427235 72.81809 312.937247 4.814419 319.557073-8.425234 6.619826-13.239653-31.895527-38.515353-67.401869-53.560413-35.506341-15.04506-44.533377-30.691922-13.239653-51.153204 31.293725-21.063084 43.931575-62.587449 61.985647-105.31542 18.054072-42.72797 45.736982-21.664886 49.347797-9.628838 3.610814 12.036048 29.488318 52.356809 29.488318 52.356809s68.003671-72.216288-73.419893-285.856139c0 0 30.691922-63.791054-21.063084-116.147863 0 0-12.63785-300.299397-320.158876-300.299397C224.639355 52.356809 230.055576 341.22196 230.055576 341.22196L230.055576 341.22196 230.055576 341.22196z" p-id="4848"></path></svg>